<?xml version="1.0" encoding="UTF-8" standalone="no"?>
<!DOCTYPE svg PUBLIC "-//W3C//DTD SVG 1.1//EN" "http://www.w3.org/Graphics/SVG/1.1/DTD/svg11.dtd">
<svg width="100%" height="100%" viewBox="0 0 393 200" version="1.1" xmlns="http://www.w3.org/2000/svg" xmlns:xlink="http://www.w3.org/1999/xlink" xml:space="preserve" xmlns:serif="http://www.serif.com/" style="fill-rule:evenodd;clip-rule:evenodd;stroke-linecap:round;stroke-linejoin:round;stroke-miterlimit:1.5;">
    <g id="Ring" transform="matrix(1,0,0,1,-247.213,-153.013)">
        <g transform="matrix(1.04594,0,0,1.04594,-4.72627,-20.1128)">
            <path d="M314.851,187.14C273.994,187.14 240.874,220.26 240.874,261.117C240.874,301.974 273.994,335.095 314.851,335.095L314.851,282.571C303.003,282.571 293.398,272.966 293.398,261.117C293.398,249.269 303.003,239.664 314.851,239.664L314.851,187.14Z" style="fill:white;"/>
        </g>
        <g transform="matrix(1.04419,0,0,1.04419,-15.7574,-13.0233)">
            <path d="M325.944,236.739C315.988,236.739 307.917,244.81 307.917,254.766C307.917,264.722 315.988,272.793 325.944,272.793L325.944,261.076C322.46,261.076 319.635,258.251 319.635,254.766C319.635,251.282 322.46,248.457 325.944,248.457L325.944,236.739Z" style="fill:white;"/>
        </g>
    </g>
    <g id="White" transform="matrix(1,0,0,1,-247.213,-153.013)">
        <path d="M261.746,223.528C259.015,221.038 252.192,230.158 251.681,248.158C251.463,255.836 251.092,265.811 255.451,276.676C256.959,280.436 258.295,284.303 261.692,288.218C273.282,301.575 260.59,280.69 258.28,269.666C257.163,264.333 256.889,258.369 256.878,253C256.867,247.652 257.115,242.896 257.73,238.457C258.966,229.543 261.526,223.411 261.746,223.528Z" style="stroke:black;stroke-width:1px;"/>
        <g transform="matrix(0.951701,0,0,0.951701,18.4395,12.453)">
            <path d="M261.746,223.528C259.015,221.038 252.192,230.158 251.681,248.158C251.463,255.836 251.092,265.811 255.451,276.676C256.959,280.436 258.295,284.303 261.692,288.218C273.282,301.575 260.59,280.69 258.28,269.666C257.163,264.333 256.889,258.369 256.878,253C256.867,247.652 257.115,242.896 257.73,238.457C258.966,229.543 261.526,223.411 261.746,223.528Z" style="stroke:black;stroke-width:1.05px;"/>
        </g>
        <g transform="matrix(0.840771,0,0,0.840771,53.4545,41.0541)">
            <path d="M261.746,223.528C259.015,221.038 252.192,230.158 251.681,248.158C251.463,255.836 251.092,265.811 255.451,276.676C256.959,280.436 258.295,284.303 261.692,288.218C273.282,301.575 260.59,280.69 258.28,269.666C257.163,264.333 256.889,258.369 256.878,253C256.867,247.652 257.115,242.896 257.73,238.457C258.966,229.543 261.526,223.411 261.746,223.528Z" style="stroke:black;stroke-width:1.19px;"/>
        </g>
        <g transform="matrix(0.737598,0,0,0.737598,85.0838,66.2209)">
            <path d="M261.746,223.528C259.015,221.038 252.192,230.158 251.681,248.158C251.463,255.836 251.092,265.811 255.451,276.676C256.959,280.436 258.295,284.303 261.692,288.218C273.282,301.575 261.423,280.69 259.113,269.666C257.995,264.333 258.24,258.595 258.229,253.226C258.218,247.878 258.498,243.482 259.113,239.043C260.349,230.129 261.526,223.411 261.746,223.528Z" style="stroke:black;stroke-width:1.36px;"/>
        </g>
        <g transform="matrix(0.649002,0,0,0.649002,114.257,89.0637)">
            <path d="M261.746,223.528C259.015,221.038 251.133,230.052 250.622,248.052C250.405,255.73 249.822,266.975 254.181,277.84C255.689,281.6 258.295,284.303 261.692,288.218C273.282,301.575 261.527,280.479 259.217,269.455C258.1,264.121 257.945,257.967 257.934,252.598C257.922,247.249 258.173,243.214 258.788,238.774C260.024,229.861 261.526,223.411 261.746,223.528Z" style="stroke:black;stroke-width:1.54px;"/>
        </g>
        <g transform="matrix(0.56813,0,0,0.56813,140.764,108.552)">
            <path d="M261.746,223.528C259.015,221.038 251.133,230.052 250.622,248.052C250.405,255.73 249.822,266.975 254.181,277.84C255.689,281.6 258.295,284.303 261.692,288.218C273.282,301.575 261.527,280.479 259.217,269.455C258.1,264.121 257.945,257.967 257.934,252.598C257.922,247.249 258.173,243.214 258.788,238.774C260.024,229.861 261.526,223.411 261.746,223.528Z" style="stroke:black;stroke-width:1.76px;"/>
        </g>
        <g transform="matrix(0.472742,0,0,0.472742,170.838,133.542)">
            <path d="M261.746,223.528C259.015,221.038 251.133,230.052 250.622,248.052C250.405,255.73 249.822,266.975 254.181,277.84C255.689,281.6 258.295,284.303 261.692,288.218C273.282,301.575 263.125,280.479 260.815,269.455C259.698,264.121 259.611,258.06 259.6,252.691C259.588,247.343 258.984,244.086 259.6,239.646C260.835,230.733 261.526,223.411 261.746,223.528Z" style="stroke:black;stroke-width:2.12px;"/>
        </g>
    </g>
    <g transform="matrix(1.40163,0,0,1,-376.889,-154.705)">
        <rect x="327.046" y="154.705" width="4.697" height="199.973" style="fill:white;"/>
    </g>
    <g transform="matrix(1.4757,0,0,1.4757,-404.478,-310.598)">
        <text x="343.849px" y="278.23px" style="font-family:'MedicalShape', 'Medical Shape';font-size:45.176px;fill:white;">Tim Lee</text>
    </g>
    <g transform="matrix(1.55978,0,0,1.55978,-436.657,-270.273)">
        <text x="343.849px" y="278.23px" style="font-family:'MedicalShape', 'Medical Shape';font-size:42.741px;fill:white;">Roadshow</text>
    </g>
</svg>
